<?xml version="1.0" encoding="UTF-8"?>
<svg width="40px" height="32px" viewBox="0 0 40 32" version="1.1" xmlns="http://www.w3.org/2000/svg" xmlns:xlink="http://www.w3.org/1999/xlink">
    <!-- Generator: Sketch 52.6 (67491) - http://www.bohemiancoding.com/sketch -->
    <title>“</title>
    <desc>Created with Sketch.</desc>
    <g id="Page-1" stroke="none" stroke-width="1" fill="none" fill-rule="evenodd">
        <g id="Homepage" transform="translate(-621.000000, -1675.000000)" fill="#2D2C70">
            <g id="Group-7" transform="translate(0.000000, 1561.000000)">
                <g id="Group" transform="translate(243.000000, 114.000000)">
                    <path d="M396.339844,3.640625 C394.54296,4.14844004 392.873055,4.85155801 391.330078,5.75 C389.787102,6.64844199 388.439459,7.69335342 387.287109,8.88476562 C386.13476,10.0761778 385.226566,11.3554619 384.5625,12.7226562 C383.898434,14.0898506 383.566406,15.4960865 383.566406,16.9414062 C383.566406,17.8007855 383.742186,18.5527312 384.09375,19.1972656 C384.445314,19.8418001 384.855466,20.1640625 385.324219,20.1640625 C385.832034,20.1640625 386.251951,20.0664072 386.583984,19.8710938 C386.916017,19.6757803 387.257811,19.4609387 387.609375,19.2265625 C387.960939,18.9921863 388.361326,18.7773447 388.810547,18.5820312 C389.259768,18.3867178 389.855465,18.2890625 390.597656,18.2890625 C391.37891,18.2890625 392.111325,18.4550765 392.794922,18.7871094 C393.478519,19.1191423 394.083982,19.5781221 394.611328,20.1640625 C395.138675,20.7500029 395.558592,21.4531209 395.871094,22.2734375 C396.183595,23.0937541 396.339844,23.9726516 396.339844,24.9101562 C396.339844,25.9257863 396.125002,26.863277 395.695312,27.7226562 C395.265623,28.5820355 394.689457,29.3242156 393.966797,29.9492188 C393.244137,30.5742219 392.404302,31.0722638 391.447266,31.4433594 C390.49023,31.814455 389.464849,32 388.371094,32 C386.925774,32 385.578131,31.6777376 384.328125,31.0332031 C383.078119,30.3886687 381.98438,29.5097712 381.046875,28.3964844 C380.10937,27.2831976 379.36719,25.9941479 378.820312,24.5292969 C378.273435,23.0644458 378,21.4921959 378,19.8125 C378,17.1562367 378.498042,14.7148549 379.494141,12.4882812 C380.490239,10.2617076 381.818351,8.31836768 383.478516,6.65820312 C385.13868,4.99803857 387.08202,3.66992686 389.308594,2.67382812 C391.535167,1.67772939 393.878894,1.10156328 396.339844,0.9453125 L396.339844,3.640625 Z M417.492188,3.640625 C415.734366,4.14844004 414.074227,4.85155801 412.511719,5.75 C410.949211,6.64844199 409.601568,7.69335342 408.46875,8.88476562 C407.335932,10.0761778 406.437503,11.3554619 405.773438,12.7226562 C405.109372,14.0898506 404.777344,15.4960865 404.777344,16.9414062 C404.777344,17.8007855 404.943358,18.5527312 405.275391,19.1972656 C405.607424,19.8418001 406.027341,20.1640625 406.535156,20.1640625 C407.042971,20.1640625 407.462889,20.0664072 407.794922,19.8710938 C408.126955,19.6757803 408.458983,19.4609387 408.791016,19.2265625 C409.123049,18.9921863 409.51367,18.7773447 409.962891,18.5820312 C410.412112,18.3867178 411.007809,18.2890625 411.75,18.2890625 C412.531254,18.2890625 413.263668,18.4550765 413.947266,18.7871094 C414.630863,19.1191423 415.236325,19.5781221 415.763672,20.1640625 C416.291018,20.7500029 416.710936,21.4531209 417.023438,22.2734375 C417.335939,23.0937541 417.492188,23.9726516 417.492188,24.9101562 C417.492188,25.9257863 417.287111,26.863277 416.876953,27.7226562 C416.466795,28.5820355 415.900394,29.3242156 415.177734,29.9492188 C414.455075,30.5742219 413.605474,31.0722638 412.628906,31.4433594 C411.652339,31.814455 410.617193,32 409.523438,32 C408.078118,32 406.730475,31.6777376 405.480469,31.0332031 C404.230462,30.3886687 403.136723,29.5097712 402.199219,28.3964844 C401.261714,27.2831976 400.519534,25.9941479 399.972656,24.5292969 C399.425779,23.0644458 399.152344,21.4921959 399.152344,19.8125 C399.152344,17.1562367 399.650386,14.7148549 400.646484,12.4882812 C401.642583,10.2617076 402.98046,8.31836768 404.660156,6.65820312 C406.339852,4.99803857 408.283192,3.66992686 410.490234,2.67382812 C412.697277,1.67772939 415.031238,1.10156328 417.492188,0.9453125 L417.492188,3.640625 Z" id="“"></path>
                </g>
            </g>
        </g>
    </g>
</svg>