<?xml version="1.0" encoding="UTF-8"?>
<svg width="18px" height="19px" viewBox="0 0 18 19" version="1.1" xmlns="http://www.w3.org/2000/svg" xmlns:xlink="http://www.w3.org/1999/xlink">
    <!-- Generator: Sketch 52.6 (67491) - http://www.bohemiancoding.com/sketch -->
    <title>Group 4</title>
    <desc>Created with Sketch.</desc>
    <g id="Page-1" stroke="none" stroke-width="1" fill="none" fill-rule="evenodd">
        <g id="Homepage" transform="translate(-650.000000, -5336.000000)" fill="#FFFFFF">
            <g id="Group-4" transform="translate(650.000000, 5336.000000)">
                <path d="M8.85832572,3.55271368e-14 C6.45248097,3.55271368e-14 6.15086758,0.0104878798 5.20608828,0.0546868019 C4.26325723,0.0987608683 3.61936073,0.252333394 3.05582953,0.476823964 C2.47318113,0.709055589 1.97929985,1.01957174 1.48687976,1.52448824 C0.9943379,2.0295296 0.691506849,2.53606922 0.465022831,3.13337895 C0.24608828,3.71121119 0.0963165906,4.37144819 0.0533333333,5.33820597 C0.0102283105,6.30696144 -3.55271368e-15,6.61622904 -3.55271368e-15,9.0831282 C-3.55271368e-15,11.5499025 0.0102283105,11.8591701 0.0533333333,12.8279256 C0.0963165906,13.7948082 0.24608828,14.4550452 0.465022831,15.0327526 C0.691506849,15.6301872 0.9943379,16.1366019 1.48687976,16.6416433 C1.97929985,17.1465598 2.47318113,17.457076 3.05582953,17.6893076 C3.61936073,17.9137981 4.26325723,18.0673707 5.20608828,18.1115696 C6.15086758,18.1556437 6.45248097,18.1661315 8.85832572,18.1661315 C11.2640487,18.1661315 11.5656621,18.1556437 12.5104414,18.1115696 C13.4533942,18.0673707 14.0972907,17.9137981 14.6607002,17.6893076 C15.2433486,17.457076 15.7372298,17.1465598 16.2297717,16.6416433 C16.7221918,16.1366019 17.0250228,15.6301872 17.2515068,15.0327526 C17.4705632,14.4550452 17.6202131,13.7948082 17.6633181,12.8279256 C17.7063014,11.8591701 17.7165297,11.5499025 17.7165297,9.0831282 C17.7165297,6.61622904 17.7063014,6.30696144 17.6633181,5.33820597 C17.6202131,4.37144819 17.4705632,3.71121119 17.2515068,3.13337895 C17.0250228,2.53606922 16.7221918,2.0295296 16.2297717,1.52448824 C15.7372298,1.01957174 15.2433486,0.709055589 14.6607002,0.476823964 C14.0972907,0.252333394 13.4533942,0.0987608683 12.5104414,0.0546868019 C11.5656621,0.0104878798 11.2640487,3.55271368e-14 8.85832572,3.55271368e-14 M8.85832572,1.63660867 C11.2235008,1.63660867 11.5036834,1.64597285 12.4377473,1.6895475 C13.3014307,1.72987589 13.7704718,1.87795477 14.0825571,2.00231105 C14.4960731,2.16699574 14.7912329,2.36401805 15.1012481,2.68177584 C15.4110198,2.99953363 15.6031659,3.30218387 15.7637747,3.72619387 C15.8850533,4.04619906 16.0294673,4.52726812 16.0687976,5.41274483 C16.1114155,6.370513 16.1204262,6.65780599 16.1204262,9.0831282 C16.1204262,11.5083256 16.1114155,11.7956185 16.0687976,12.7535116 C16.0294673,13.6389883 15.8850533,14.1199325 15.7637747,14.4399377 C15.6031659,14.8639477 15.4110198,15.1665979 15.1012481,15.4844806 C14.7912329,15.8021135 14.4960731,15.9991358 14.0825571,16.1638205 C13.7704718,16.2881768 13.3014307,16.4362557 12.4377473,16.476584 C11.5039269,16.5202835 11.2237443,16.5295229 8.85832572,16.5295229 C6.49278539,16.5295229 6.21272451,16.5202835 5.27890411,16.476584 C4.4152207,16.4362557 3.94605784,16.2881768 3.6339726,16.1638205 C3.22045662,15.9991358 2.9252968,15.8021135 2.61540335,15.4844806 C2.30550989,15.1665979 2.11336377,14.8639477 1.95275495,14.4399377 C1.83147641,14.1199325 1.68718417,13.6389883 1.64773212,12.7535116 C1.60523592,11.7956185 1.5961035,11.5083256 1.5961035,9.0831282 C1.5961035,6.65780599 1.60523592,6.370513 1.64773212,5.41286969 C1.68718417,4.52726812 1.83147641,4.04619906 1.95275495,3.72619387 C2.11336377,3.30218387 2.30550989,2.99953363 2.61540335,2.68177584 C2.9252968,2.36401805 3.22045662,2.16699574 3.6339726,2.00231105 C3.94605784,1.87795477 4.4152207,1.72987589 5.27890411,1.6895475 C6.21284627,1.64597285 6.49302892,1.63660867 8.85832572,1.63660867" id="Fill-1"></path>
                <path d="M8.54879756,11.691861 C6.91799087,11.691861 5.59598174,10.3364274 5.59598174,8.66423484 C5.59598174,6.99204228 6.91799087,5.63648382 8.54879756,5.63648382 C10.1796043,5.63648382 11.5014916,6.99204228 11.5014916,8.66423484 C11.5014916,10.3364274 10.1796043,11.691861 8.54879756,11.691861 M8.54879756,4 C6.03652968,4 4,6.08821178 4,8.66423484 C4,11.2402579 6.03652968,13.3283448 8.54879756,13.3283448 C11.0610654,13.3283448 13.0974734,11.2402579 13.0974734,8.66423484 C13.0974734,6.08821178 11.0610654,4 8.54879756,4" id="Fill-4"></path>
                <path d="M14.0630137,5.17985588 C13.47586,5.17985588 13,4.6917949 13,4.08986551 C13,3.48793612 13.47586,3 14.0630137,3 C14.6500457,3 15.1259056,3.48793612 15.1259056,4.08986551 C15.1259056,4.6917949 14.6500457,5.17985588 14.0630137,5.17985588 Z" id="Fill-6"></path>
            </g>
        </g>
    </g>
</svg>