<?xml version="1.0" encoding="UTF-8"?>
<svg width="54px" height="74px" viewBox="0 0 54 74" version="1.1" xmlns="http://www.w3.org/2000/svg" xmlns:xlink="http://www.w3.org/1999/xlink">
    <!-- Generator: Sketch 52.6 (67491) - http://www.bohemiancoding.com/sketch -->
    <title>Group 4</title>
    <desc>Created with Sketch.</desc>
    <g id="Page-1" stroke="none" stroke-width="1" fill="none" fill-rule="evenodd">
        <g id="Notícias" transform="translate(-409.000000, -1759.000000)">
            <g id="Group-4" transform="translate(409.000000, 1759.000000)">
                <path d="M27,73.9648437 C45,52.5960734 54,36.9411255 54,27 C54,12.0883118 41.9116882,1.42108547e-14 27,1.42108547e-14 C12.0883118,1.42108547e-14 7.10542736e-15,12.0883118 7.10542736e-15,27 C7.10542736e-15,36.9411255 9,52.5960734 27,73.9648437 Z" id="Oval" fill="#84C455"></path>
                <g id="Group-2" transform="translate(15.000000, 13.000000)">
                    <g id="Group-3" fill="#578833">
                        <path d="M10.7403658,16.735272 C10.2277978,16.539355 9.76636249,16.2943402 9.35630809,15.951604 C7.81860408,16.931189 5.92173016,17.0780081 4.17899895,16.539355 C1.97483244,15.8534084 0.693040111,14.4328916 0.283233928,12.9146535 C-0.639636691,9.73064663 1.82093793,6.88961309 5.25551586,6.84051525 C2.58991404,1.89325546 9.76636249,-2.22123853 14.2774573,1.55028213 C17.5581408,1.50142148 20.1723617,3.70560621 21.0438514,6.64459826 C23.8630995,7.47736406 26.0161333,9.77950729 25.0932627,12.6696387 C24.1706403,15.5106722 21.0438514,16.2454795 18.2754877,15.4127137 C16.686651,16.735272 14.5847499,17.4700793 12.483097,17.2250645" id="Fill-1"></path>
                    </g>
                    <polygon id="Fill-10" fill="#FFFFFF" points="13.9893472 35.3468537 9.28571429 35.3468537 9.28571429 13.7215079 12.5735236 12 13.9893472 12"></polygon>
                </g>
            </g>
        </g>
    </g>
</svg>