<?xml version="1.0" encoding="UTF-8"?>
<svg width="40px" height="32px" viewBox="0 0 40 32" version="1.1" xmlns="http://www.w3.org/2000/svg" xmlns:xlink="http://www.w3.org/1999/xlink">
    <!-- Generator: Sketch 52.6 (67491) - http://www.bohemiancoding.com/sketch -->
    <title>“ copy</title>
    <desc>Created with Sketch.</desc>
    <g id="Page-1" stroke="none" stroke-width="1" fill="none" fill-rule="evenodd">
        <g id="Homepage" transform="translate(-621.000000, -2087.000000)" fill="#2D2C70">
            <g id="Group-7" transform="translate(0.000000, 1561.000000)">
                <g id="Group" transform="translate(243.000000, 114.000000)">
                    <path d="M396.339844,414.695312 C394.54296,415.203128 392.873055,415.906246 391.330078,416.804688 C389.787102,417.703129 388.439459,418.748041 387.287109,419.939453 C386.13476,421.130865 385.226566,422.410149 384.5625,423.777344 C383.898434,425.144538 383.566406,426.550774 383.566406,427.996094 C383.566406,428.855473 383.742186,429.607419 384.09375,430.251953 C384.445314,430.896488 384.855466,431.21875 385.324219,431.21875 C385.832034,431.21875 386.251951,431.121095 386.583984,430.925781 C386.916017,430.730468 387.257811,430.515626 387.609375,430.28125 C387.960939,430.046874 388.361326,429.832032 388.810547,429.636719 C389.259768,429.441405 389.855465,429.34375 390.597656,429.34375 C391.37891,429.34375 392.111325,429.509764 392.794922,429.841797 C393.478519,430.17383 394.083982,430.63281 394.611328,431.21875 C395.138675,431.80469 395.558592,432.507808 395.871094,433.328125 C396.183595,434.148442 396.339844,435.027339 396.339844,435.964844 C396.339844,436.980474 396.125002,437.917964 395.695312,438.777344 C395.265623,439.636723 394.689457,440.378903 393.966797,441.003906 C393.244137,441.628909 392.404302,442.126951 391.447266,442.498047 C390.49023,442.869142 389.464849,443.054688 388.371094,443.054688 C386.925774,443.054688 385.578131,442.732425 384.328125,442.087891 C383.078119,441.443356 381.98438,440.564459 381.046875,439.451172 C380.10937,438.337885 379.36719,437.048835 378.820312,435.583984 C378.273435,434.119133 378,432.546883 378,430.867188 C378,428.210924 378.498042,425.769542 379.494141,423.542969 C380.490239,421.316395 381.818351,419.373055 383.478516,417.712891 C385.13868,416.052726 387.08202,414.724614 389.308594,413.728516 C391.535167,412.732417 393.878894,412.156251 396.339844,412 L396.339844,414.695312 Z M417.492188,414.695312 C415.734366,415.203128 414.074227,415.906246 412.511719,416.804688 C410.949211,417.703129 409.601568,418.748041 408.46875,419.939453 C407.335932,421.130865 406.437503,422.410149 405.773438,423.777344 C405.109372,425.144538 404.777344,426.550774 404.777344,427.996094 C404.777344,428.855473 404.943358,429.607419 405.275391,430.251953 C405.607424,430.896488 406.027341,431.21875 406.535156,431.21875 C407.042971,431.21875 407.462889,431.121095 407.794922,430.925781 C408.126955,430.730468 408.458983,430.515626 408.791016,430.28125 C409.123049,430.046874 409.51367,429.832032 409.962891,429.636719 C410.412112,429.441405 411.007809,429.34375 411.75,429.34375 C412.531254,429.34375 413.263668,429.509764 413.947266,429.841797 C414.630863,430.17383 415.236325,430.63281 415.763672,431.21875 C416.291018,431.80469 416.710936,432.507808 417.023438,433.328125 C417.335939,434.148442 417.492188,435.027339 417.492188,435.964844 C417.492188,436.980474 417.287111,437.917964 416.876953,438.777344 C416.466795,439.636723 415.900394,440.378903 415.177734,441.003906 C414.455075,441.628909 413.605474,442.126951 412.628906,442.498047 C411.652339,442.869142 410.617193,443.054688 409.523438,443.054688 C408.078118,443.054688 406.730475,442.732425 405.480469,442.087891 C404.230462,441.443356 403.136723,440.564459 402.199219,439.451172 C401.261714,438.337885 400.519534,437.048835 399.972656,435.583984 C399.425779,434.119133 399.152344,432.546883 399.152344,430.867188 C399.152344,428.210924 399.650386,425.769542 400.646484,423.542969 C401.642583,421.316395 402.98046,419.373055 404.660156,417.712891 C406.339852,416.052726 408.283192,414.724614 410.490234,413.728516 C412.697277,412.732417 415.031238,412.156251 417.492188,412 L417.492188,414.695312 Z" id="“-copy" transform="translate(397.746094, 427.527344) rotate(-180.000000) translate(-397.746094, -427.527344) "></path>
                </g>
            </g>
        </g>
    </g>
</svg>